HIERARCHY
ROOT Hips
{
	OFFSET -0.001795 -0.223333 0.028219
	CHANNELS 6 Xposition Yposition Zposition Zrotation Yrotation Xrotation 
	JOINT LeftUpLeg
	{
		OFFSET 0.069520 -0.091406 -0.006815
		CHANNELS 3 Zrotation Yrotation Xrotation
		JOINT LeftLeg
		{
			OFFSET 0.034277 -0.375199 -0.004496
			CHANNELS 3 Zrotation Yrotation Xrotation
			JOINT LeftFoot
			{
				OFFSET -0.013596 -0.397961 -0.043693
				CHANNELS 3 Zrotation Yrotation Xrotation
				JOINT LeftToe
				{
					OFFSET 0.026358 -0.055791 0.119288
					CHANNELS 3 Zrotation Yrotation Xrotation
					End Site
					{
						OFFSET 0.000000 0.000000 0.000000
					}
				}
			}
		}
	}
	JOINT RightUpLeg
	{
		OFFSET -0.067670 -0.090522 -0.004320
		CHANNELS 3 Zrotation Yrotation Xrotation
		JOINT RightLeg
		{
			OFFSET -0.038290 -0.382569 -0.008850
			CHANNELS 3 Zrotation Yrotation Xrotation
			JOINT RightFoot
			{
				OFFSET 0.015774 -0.398415 -0.042312
				CHANNELS 3 Zrotation Yrotation Xrotation
				JOINT RightToe
				{
					OFFSET -0.025372 -0.048144 0.123348
					CHANNELS 3 Zrotation Yrotation Xrotation
					End Site
					{
						OFFSET 0.000000 0.000000 0.000000
					}
				}
			}
		}
	}
	JOINT Spine
	{
		OFFSET -0.002533 0.108963 -0.026696
		CHANNELS 3 Zrotation Yrotation Xrotation
		JOINT Spine1
		{
			OFFSET 0.005487 0.135180 0.001092
			CHANNELS 3 Zrotation Yrotation Xrotation
			JOINT Spine2
			{
				OFFSET 0.001457 0.052922 0.025425
				CHANNELS 3 Zrotation Yrotation Xrotation
				JOINT Neck
				{
					OFFSET -0.002778 0.213870 -0.042857
					CHANNELS 3 Zrotation Yrotation Xrotation
					JOINT Head
					{
						OFFSET 0.005152 0.064970 0.051349
						CHANNELS 3 Zrotation Yrotation Xrotation
						End Site
						{
							OFFSET 0.000000 0.000000 0.000000
						}
					}
				}
				JOINT LeftShoulder
				{
					OFFSET 0.078845 0.121749 -0.034090
					CHANNELS 3 Zrotation Yrotation Xrotation
					JOINT LeftArm
					{
						OFFSET 0.090977 0.030469 -0.008868
						CHANNELS 3 Zrotation Yrotation Xrotation
						JOINT LeftForeArm
						{
							OFFSET 0.259612 -0.012772 -0.027456
							CHANNELS 3 Zrotation Yrotation Xrotation
							JOINT LeftHand
							{
								OFFSET 0.249234 0.008986 -0.001171
								CHANNELS 3 Zrotation Yrotation Xrotation
								End Site
								{
									OFFSET 0.000000 0.000000 0.000000
								}
							}
						}
					}
				}
				JOINT RightShoulder
				{
					OFFSET -0.081759 0.118833 -0.038615
					CHANNELS 3 Zrotation Yrotation Xrotation
					JOINT RightArm
					{
						OFFSET -0.096012 0.032551 -0.009143
						CHANNELS 3 Zrotation Yrotation Xrotation
						JOINT RightForeArm
						{
							OFFSET -0.253742 -0.013329 -0.021401
							CHANNELS 3 Zrotation Yrotation Xrotation
							JOINT RightHand
							{
								OFFSET -0.255298 0.007772 -0.005559
								CHANNELS 3 Zrotation Yrotation Xrotation
								End Site
								{
									OFFSET 0.000000 0.000000 0.000000
								}
							}
						}
					}
				}
			}
		}
	}
}
MOTION
Frames: 18
Frame Time: 0.050000
0.000000 0.932163 0.000000 -2.231578 0.627966 -0.196503 2.239430 -0.026203 0.049594 -5.015615 0.568843 2.898330 4.359909 9.120260 0.026045 0.000000 0.000000 0.000000 -3.604841 0.738318 -9.621632 9.315366 -2.510094 31.322844 -7.401067 -18.309001 1.669477 0.000000 0.000000 0.000000 -4.133898 -0.067785 15.129843 4.473373 -0.539786 -22.970895 -0.667974 0.586421 27.064273 1.353061 1.190306 -29.564911 0.000000 0.000000 0.000000 -30.737417 -3.159385 -0.310309 -39.201935 -14.827892 -2.018163 -16.290160 -30.851742 5.948377 0.000000 0.000000 0.000000 21.314058 8.988853 4.230428 48.696637 13.842860 -1.682959 10.468387 32.379853 4.402178 0.000000 0.000000 0.000000 
0.003059 0.931086 0.013353 -3.189555 0.904134 -0.728485 3.597977 0.102864 2.588439 -5.542161 0.608311 1.052016 3.858365 7.759174 -1.033738 0.000000 0.000000 0.000000 -3.587972 0.909820 -12.215338 10.970635 -3.469094 34.577389 -8.080782 -19.826021 3.216970 0.000000 0.000000 0.000000 -3.673832 -0.166435 16.324340 4.652872 -0.553140 -23.474663 -0.436787 0.015087 27.547050 1.730107 0.959741 -30.229480 0.000000 0.000000 0.000000 -31.258195 -1.985173 -0.942493 -40.047810 -15.537151 -1.924809 -15.835693 -29.855255 5.689379 0.000000 0.000000 0.000000 19.996903 8.941040 4.077916 51.346833 13.020112 -2.043382 11.130625 34.228895 4.970781 0.000000 0.000000 0.000000 
0.004465 0.931783 0.028325 -3.398092 0.723472 -0.890245 4.092491 0.141838 3.589366 -5.346224 0.590481 1.203469 3.567673 7.253649 -0.716858 0.000000 0.000000 0.000000 -4.578305 1.081524 -16.563270 12.166038 -3.901531 33.885369 -8.881013 -21.504754 3.639789 0.000000 0.000000 0.000000 -3.963479 -0.126571 16.539081 5.490440 -0.771251 -23.473054 -0.392257 -0.220016 27.870682 -0.702838 2.210144 -30.415585 0.000000 0.000000 0.000000 -30.939974 -2.623809 -0.325603 -39.817138 -15.891898 -1.869180 -15.658864 -29.821242 5.632940 0.000000 0.000000 0.000000 18.902631 9.747877 4.363690 51.766450 11.935965 -2.461721 10.738598 34.548294 4.850911 0.000000 0.000000 0.000000 
0.004966 0.930693 0.045988 -3.830803 0.729902 -1.401286 4.821098 0.202265 5.483412 -5.950306 0.658661 1.019717 3.993190 7.429663 -3.002763 0.000000 0.000000 0.000000 -4.132392 1.196692 -17.563346 11.168044 -2.992929 27.279396 -9.499403 -22.710008 4.760902 0.000000 0.000000 0.000000 -4.250766 -0.105371 17.940221 5.940187 -0.797249 -24.651375 0.461330 -1.073448 28.289876 -1.756438 2.675022 -32.157971 0.000000 0.000000 0.000000 -32.083068 -1.937228 -0.462307 -38.890554 -15.933644 -2.030994 -17.651400 -31.809098 6.695725 0.000000 0.000000 0.000000 17.956735 9.660705 4.075203 50.894612 11.096260 -2.839042 12.887751 35.251380 5.555452 0.000000 0.000000 0.000000 
0.004327 0.928390 0.066169 -4.073670 1.041167 -1.858588 5.099113 0.259978 7.257800 -5.561493 0.606645 0.817180 3.751200 6.513870 -4.020233 0.000000 0.000000 0.000000 -4.303805 1.235518 -18.834441 10.811840 -2.367626 19.324570 -9.932786 -23.285130 8.016289 0.000000 0.000000 0.000000 -4.048395 -0.166177 18.825677 6.695103 -1.049205 -23.862309 0.144430 -0.859201 26.882384 -1.710209 2.722221 -31.986557 0.000000 0.000000 0.000000 -32.123367 -1.681429 -0.917130 -38.794552 -15.630911 -1.917613 -18.839826 -33.455907 7.391694 0.000000 0.000000 0.000000 17.653587 8.652343 3.580819 51.011375 9.782752 -3.247164 13.647814 35.663012 5.876494 0.000000 0.000000 0.000000 
0.002612 0.925857 0.089016 -4.198683 2.093848 -1.938940 5.567555 0.250993 8.725417 -5.386922 0.572664 0.823202 3.168011 4.484414 -5.511670 0.000000 0.000000 0.000000 -5.042844 1.123304 -19.606560 10.579455 -1.849181 11.064658 -9.466140 -22.185378 10.236021 0.000000 0.000000 0.000000 -3.616765 -0.294069 19.782046 6.263362 -0.849985 -24.830316 0.586742 -2.096062 26.590965 -2.797993 3.184427 -32.915501 0.000000 0.000000 0.000000 -32.225786 -1.312121 -0.930957 -39.420371 -15.249883 -2.098058 -20.024859 -35.295296 8.298242 0.000000 0.000000 0.000000 17.627082 8.268787 3.218035 50.826888 7.412710 -4.161370 14.632581 36.716910 6.330233 0.000000 0.000000 0.000000 
-0.000562 0.921038 0.114774 -4.075646 3.063765 -1.754610 5.288733 0.301414 10.286939 -4.152530 0.425695 0.240085 2.841052 3.220780 -6.352612 0.000000 0.000000 0.000000 -5.190038 1.094587 -20.320582 9.356438 -1.275629 4.110128 -9.622350 -22.278147 11.653914 0.000000 0.000000 0.000000 -3.109627 -0.416748 19.844156 6.534047 -0.918561 -24.592856 -0.303273 -2.295752 25.734477 -2.874721 3.272440 -32.485237 0.000000 0.000000 0.000000 -32.053293 -1.398973 -1.089071 -39.657451 -14.840810 -2.089544 -20.860962 -36.727159 8.909175 0.000000 0.000000 0.000000 18.442966 7.805205 3.059087 50.411414 5.827890 -4.714053 14.778814 37.246403 6.499531 0.000000 0.000000 0.000000 
-0.005445 0.914931 0.143254 -3.494154 4.507914 -1.966044 5.088908 0.339156 12.098062 -3.554416 0.353479 0.183064 2.652195 2.318551 -6.913155 0.000000 0.000000 0.000000 -5.470047 0.982221 -20.455134 8.051338 -1.001525 1.170071 -9.516776 -21.915467 12.077211 0.000000 0.000000 0.000000 -2.981546 -0.506431 20.349114 6.302501 -0.822490 -24.896145 -0.546397 -2.364476 25.057676 -3.058052 3.482030 -32.539213 0.000000 0.000000 0.000000 -32.014132 -2.382264 -0.786759 -39.847341 -15.131087 -1.835672 -21.325287 -38.387501 9.428877 0.000000 0.000000 0.000000 19.309822 7.948104 3.331114 50.109578 4.671470 -5.127139 13.185618 37.389007 6.039908 0.000000 0.000000 0.000000 
-0.012283 0.907382 0.174222 -3.178132 5.655023 -1.960898 5.243827 0.313576 13.623821 -2.939701 0.279614 0.732636 2.651309 1.395633 -8.319265 0.000000 0.000000 0.000000 -5.173925 1.004627 -21.133040 7.501927 -0.998003 2.663205 -9.041188 -20.985885 11.580859 0.000000 0.000000 0.000000 -2.381995 -0.651808 20.312377 5.815890 -0.705185 -24.542010 -0.899207 -2.233134 24.168278 -2.702496 3.408465 -31.686685 0.000000 0.000000 0.000000 -32.340806 -2.997546 -0.821210 -39.802968 -16.038016 -1.336601 -20.754644 -39.125837 9.300942 0.000000 0.000000 0.000000 20.611189 8.074855 3.630287 49.639262 3.984148 -5.314164 12.309679 37.675498 5.842488 0.000000 0.000000 0.000000 
-0.020970 0.901184 0.207807 -3.089006 6.495337 -2.100314 5.858978 0.212098 15.399182 -2.558602 0.219921 1.847882 2.875559 0.582985 -10.405232 0.000000 0.000000 0.000000 -5.241386 0.960097 -21.515774 8.287961 -1.260916 5.561170 -9.515788 -21.675837 12.418406 0.000000 0.000000 0.000000 -1.782655 -0.791465 20.320063 5.399538 -0.568346 -24.907620 -0.782760 -1.899613 24.213136 -2.206544 3.287263 -31.730595 0.000000 0.000000 0.000000 -32.232710 -3.815793 -0.621929 -39.897758 -16.834103 -0.969523 -20.780453 -40.380306 9.559071 0.000000 0.000000 0.000000 20.659333 8.067046 3.878373 49.733507 3.508559 -5.566901 11.817356 38.111166 5.839987 0.000000 0.000000 0.000000 
-0.031208 0.897486 0.243512 -3.464311 7.482534 -1.961299 7.391740 -0.107654 16.129505 -2.529999 0.169676 4.159588 2.878567 0.169324 -10.813148 0.000000 0.000000 0.000000 -4.884107 0.991399 -21.807273 9.724077 -1.807587 9.584779 -10.204855 -22.825165 12.259644 0.000000 0.000000 0.000000 -0.896394 -0.949639 19.679161 4.995591 -0.462370 -24.734667 -0.295113 -2.010809 24.075801 -2.849975 3.680755 -31.841760 0.000000 0.000000 0.000000 -32.541760 -4.205904 -0.609844 -40.003307 -17.165314 -0.786521 -20.549353 -40.363116 9.421365 0.000000 0.000000 0.000000 20.670047 8.265885 4.134682 49.317436 3.713934 -5.470582 11.664817 37.411114 5.683145 0.000000 0.000000 0.000000 
-0.042451 0.898312 0.280517 -3.536612 8.193948 -1.707010 8.785462 -0.393510 15.555823 -2.967814 0.130424 8.606212 2.581481 -0.137099 -9.964978 0.000000 0.000000 0.000000 -4.165256 1.086212 -21.374459 10.658993 -2.267456 12.317707 -10.310950 -23.097493 11.306010 0.000000 0.000000 0.000000 -0.075200 -1.110195 19.539883 5.001430 -0.394340 -25.883407 -0.300862 -2.159532 24.545833 -2.106772 3.356021 -32.182633 0.000000 0.000000 0.000000 -33.066402 -4.112914 -0.852080 -40.160656 -16.804615 -0.883162 -20.530950 -38.626572 8.950596 0.000000 0.000000 0.000000 21.079073 7.933396 4.067944 48.082550 4.251053 -5.221542 12.869275 36.888129 5.979287 0.000000 0.000000 0.000000 
-0.053717 0.901483 0.317637 -3.612270 8.216370 -1.612734 10.331429 -0.592960 13.196254 -3.069566 -0.057869 15.625340 1.671973 0.206511 -5.944898 0.000000 0.000000 0.000000 -3.141929 1.211199 -19.696384 10.599034 -2.366464 13.639908 -9.297105 -21.570712 8.802637 0.000000 0.000000 0.000000 0.373509 -1.104445 18.441943 5.369654 -0.547403 -24.642543 -0.248972 -2.638615 23.842837 -2.479584 3.446296 -31.437778 0.000000 0.000000 0.000000 -32.775921 -3.056657 -1.381427 -41.403500 -16.353887 -1.033815 -19.567640 -36.342888 8.093377 0.000000 0.000000 0.000000 20.810714 8.560563 4.238998 48.053143 4.540449 -4.996277 11.428913 37.137032 5.480945 0.000000 0.000000 0.000000 
-0.063383 0.906850 0.352348 -3.825003 7.903867 -1.291509 12.008232 -0.640366 8.008404 -4.240676 -0.134503 26.510328 1.695140 2.011687 -2.980880 0.000000 0.000000 0.000000 -1.259631 1.429874 -17.800533 9.768916 -2.164810 14.054406 -8.977901 -21.317032 6.149533 0.000000 0.000000 0.000000 1.197466 -1.157688 17.490498 5.175911 -0.501286 -24.658720 0.394112 -2.118557 23.878321 -3.164193 3.832616 -30.688305 0.000000 0.000000 0.000000 -33.067290 -2.635506 -1.868770 -41.341179 -14.141260 -1.702357 -19.351552 -34.658566 7.586579 0.000000 0.000000 0.000000 19.809285 8.588318 4.298618 47.689388 5.038052 -4.787705 11.509070 36.887429 5.481060 0.000000 0.000000 0.000000 
-0.070614 0.911967 0.384109 -3.924825 7.605304 -1.890453 13.849516 -0.552020 2.239067 -6.825049 0.484795 37.584335 2.059788 4.442829 0.361590 0.000000 0.000000 0.000000 0.158123 1.421965 -14.960230 9.156430 -2.009761 14.264413 -8.572000 -20.713367 4.507173 0.000000 0.000000 0.000000 1.983557 -1.320263 18.036423 5.224757 -0.472184 -25.547854 1.061099 -1.456467 24.338701 -4.238555 4.467691 -31.107457 0.000000 0.000000 0.000000 -33.983936 -1.549035 -2.966112 -40.929255 -11.469823 -2.507787 -19.806036 -33.209779 7.349970 0.000000 0.000000 0.000000 18.907293 8.616812 4.382856 46.892029 4.735490 -4.886143 12.425553 37.627250 5.928587 0.000000 0.000000 0.000000 
-0.075411 0.915924 0.413826 -3.191285 7.054192 -2.335656 14.368140 -0.303439 -3.588519 -9.518775 1.752394 44.615978 3.827106 7.981466 0.110413 0.000000 0.000000 0.000000 0.409755 1.211374 -12.160492 8.555903 -1.847412 14.647774 -8.229721 -20.219199 2.449357 0.000000 0.000000 0.000000 1.848735 -1.288258 18.246831 5.219562 -0.474985 -25.696697 1.451276 0.009626 25.159483 -3.507968 4.292292 -30.637893 0.000000 0.000000 0.000000 -34.285843 -0.620607 -4.182297 -41.183653 -10.128117 -2.838920 -20.005828 -31.785728 7.009074 0.000000 0.000000 0.000000 18.411645 8.746761 4.719620 45.985310 6.221686 -4.411937 12.829208 37.614857 6.148753 0.000000 0.000000 0.000000 
-0.078119 0.919597 0.442167 -2.481094 6.565586 -2.938287 13.805435 -0.130032 -8.262883 -11.141258 2.696518 45.144191 5.411329 10.495769 -2.459660 0.000000 0.000000 0.000000 0.352053 0.969807 -9.605160 7.823610 -1.635078 14.794747 -7.699342 -19.105077 1.569273 0.000000 0.000000 0.000000 1.696208 -1.289505 18.906708 5.013408 -0.455174 -25.317604 2.063233 1.537892 24.772012 -3.377888 4.407319 -29.101622 0.000000 0.000000 0.000000 -34.115837 -0.776959 -4.601180 -41.424889 -7.872216 -3.388323 -20.072153 -30.379563 6.611433 0.000000 0.000000 0.000000 18.046538 8.836806 4.994325 44.865752 6.924204 -4.118508 12.911735 37.981527 6.301962 0.000000 0.000000 0.000000 
-0.078821 0.921486 0.469551 -1.813005 5.815741 -3.424884 12.805031 -0.072643 -12.033975 -10.945438 2.685489 41.689072 5.771714 11.401911 -2.022138 0.000000 0.000000 0.000000 -0.044693 0.711012 -7.169626 7.439997 -1.507623 15.100434 -7.165959 -17.913820 0.132769 0.000000 0.000000 0.000000 1.711330 -1.295697 19.414035 4.909744 -0.443821 -25.297114 2.127599 2.957587 24.766340 -3.585175 4.681915 -28.814172 0.000000 0.000000 0.000000 -34.302447 -0.494608 -5.285056 -41.143255 -6.180356 -3.759033 -19.834220 -29.812708 6.350656 0.000000 0.000000 0.000000 17.686682 8.972061 5.243959 44.272997 8.096028 -3.730998 13.468471 38.037912 6.576054 0.000000 0.000000 0.000000 
